<?xml version="1.0" encoding="utf-8"?>
<svg version="1.1" id="Layer_1" xmlns="http://www.w3.org/2000/svg" width="140" height="140">




    <defs>
        <marker id="InverseSemicircleEnd"
                viewBox="0 0 5 10" refX="0" refY="5"
                markerUnits="strokeWidth"
                markerWidth="0.5" markerHeight="1"
                orient="auto" fill="salmon">
            <path d="M 0 0 L 5 0 A 5 5 0 0 0 5 10 L 0 10 z" />
        </marker>
    </defs>

    <style type="text/css">

        .st0{stroke:#FFFFFF;}
        .st1{stroke:#405C6B;}
        .st2{stroke:#8CC63F;}
        .st3{stroke:#AEE23B;}


        .f0{fill:#FFFFFF;}
        .f1{fill:#405C6B;}
        .f2{fill:#8CC63F;}
        .f3{fill:#AEE23B;}

        .bar_0 {
        animation: animate-bar0 5s infinite;
        }

        .bar_1 {
        animation: animate-bar1 5s infinite;
        }

        .bar_2 {
        animation: animate-bar2 5s infinite;
        }

        .bar_3 {
        animation: animate-bar3 5s infinite;
        }


        @keyframes animate-bar0 {
        0%{height: 33px}
        10%{height: 44px}
        30%{height: 5px}
        40%{height: 50px}
        60%{height: 13px}
        80%{height: 38px}
        100%{height: 33px}
        }

        @keyframes animate-bar1 {
        0%{height: 38px}
        10%{height: 5px}
        30%{height: 39px}
        40%{height: 2px}
        60%{height: 50px}
        80%{height: 43px}
        100%{height: 38px}
        }

        @keyframes animate-bar2 {
        0%{height: 43px}
        10%{height: 3px}
        30%{height: 50px}
        40%{height: 34px}
        60%{height: 20px}
        80%{height: 18px}
        100%{height: 43px}
        }

        @keyframes animate-bar3 {
        0%{height: 48px}
        10%{height: 40px}
        30%{height: 5px}
        40%{height: 100px}
        60%{height: 13px}
        80%{height: 7px}
        100%{height: 48px}
        }
    </style>
    <g>

        <!-- Outer blue/grey circle -->
        <circle r="64" cx="70" cy="70" fill="none" stroke="#405C6B" stroke-width="8"/>




        <!-- Opening gape -->
        <!-- <rect x="106" y="27" class="f0" width="65.9" height="86"/> -->

        <g>
            <!-- Inner green circle -->
            <!-- <ellipse class="st2" cx="74.4" cy="70" rx="49.7" ry="52.5"/> -->
            <circle class="f2" r="56" cx="70" cy="70" />
            <g>
                <g>
                    <!-- White "backwards L" -->
                    <!--<path class="st0" d="M74.4,17.8c-27.5,0-49.7,24.7-49.7,55.2l49.7-0.2V17.8z"/> -->
                    <rect class="f0" x="70" y="14" width="4" height="60" />
                    <rect class="f0" x="14" y="70" width="60" height="4" />
                </g>
            </g>
            <g>
                <g>
                    <!-- Darker corner area -->
                    <circle class="st3" r="28" cx="70" cy="70" fill="none" stroke-width="56" stroke-dashoffset="88" stroke-dasharray="44, 132" />

                </g>
            </g>
            <g>
                <!-- Three "Corner dots" -->
                <rect x="49.6" y="41" class="f0" width="8.7" height="9.2"/>
                <rect x="42.2" y="34.7" class="f0" width="8.7" height="9.2"/>
                <rect x="39.2" y="51.6" class="f0" width="8.7" height="9.2"/>
            </g>
            <g>
                <!-- Four bars -->
                <rect x="55" y="130" class="f0 bar_0" width="10" height="33" transform="rotate(180 55 130)"/>
                <rect x="70" y="130" class="f0 bar_1" width="10" height="38" transform="rotate(180 70 130)"/>
                <rect x="85" y="130" class="f0 bar_2" width="10" height="43" transform="rotate(180 85 130)"/>
                <rect x="100" y="130" class="f0 bar_3" width="10" height="48" transform="rotate(180 100 130)"/>
            </g>
            <g>
                <!-- Outer blue/grey circle filler -->
                <circle class="st1" r="64" cx="70" cy="70" fill="none" stroke-width="8" stroke-dashoffset="-60" stroke-dasharray="290, 120" />

                <!-- White inner circle -->
                <circle class="st0" r="57.5" cx="70" cy="70" fill="none" stroke-width="5" />



                <!--<path stroke="salmon" d="M 70 6 a 64 64 0 1 0 0.00001 0 " stroke-width="8" fill="none"/>-->
                <path stroke="salmon" d="M 135,70 A63,63 0 1,0 70,135" stroke-width="8" fill="none" marker-end="url(#InverseSemicircleEnd)"/>
            </g>
        </g>
    </g>
</svg>
