<?xml version="1.0" encoding="utf-8"?>
<!-- Generator: Adobe Illustrator 20.1.0, SVG Export Plug-In . SVG Version: 6.00 Build 0)  -->
<svg version="1.1" id="Layer_1" xmlns="http://www.w3.org/2000/svg" xmlns:xlink="http://www.w3.org/1999/xlink" x="0px" y="0px"
	 viewBox="0 0 475 140" style="enable-background:new 0 0 475 140;" xml:space="preserve">
<style type="text/css">
	.st0{fill:#FFFFFF;}
	.st1{fill:#405C6B;}
	.st2{fill:#8CC63F;}
	.st3{fill:#AEE23B;}
	.st4{fill:none;}
	.st5{font-family: CopperplateGothic-Light, Copperplate Gothic Light, Copperplate Gothic, Helvetica, Arial, monospace;}
	.st6{font-size:128.4782px;}
</style>
<g>
	<path class="st0" d="M175.6,107.2c-0.5,0.1-1,0.3-1.5,0.4v1.1C174.6,108.2,175.2,107.7,175.6,107.2z"/>
	<g>
		<g>
			<ellipse class="st1" cx="67.8" cy="70" rx="63.4" ry="67"/>
			<ellipse class="st0" cx="67.8" cy="70" rx="54.9" ry="58"/>
		</g>
		<rect x="67.8" y="27" class="st0" width="65.9" height="86"/>
		<ellipse class="st2" cx="67.7" cy="70" rx="49.7" ry="52.5"/>
		<g>
			<g>
				<path class="st0" d="M67.8,17.8C40.3,17.8,18,42.5,18,73.1l49.7-0.2V17.8z"/>
			</g>
		</g>
		<g>
			<g>
				<path class="st3" d="M64.6,17.8C39,17.8,18,41.2,18,70l46.6-0.2V17.8z"/>
			</g>
		</g>
		<g>
			<rect x="43" y="41" class="st0" width="8.7" height="9.2"/>
			<rect x="35.5" y="34.7" class="st0" width="8.7" height="9.2"/>
			<rect x="32.5" y="51.6" class="st0" width="8.7" height="9.2"/>
		</g>
		<g>
			<polygon class="st0" points="47,118.1 47,98.2 36.3,98.2 36.3,113.6 41.3,118.1 			"/>
			<rect x="52.5" y="92.2" class="st0" width="9.6" height="33.1"/>
			<rect x="67.8" y="86.3" class="st0" width="9.6" height="39.5"/>
			<path class="st0" d="M93.6,119.1V80.8H83.1v41.7c2.1,0,4.1,0,6.2,0C90.6,121.3,92.1,120.2,93.6,119.1z"/>
		</g>
	</g>
</g>
<rect x="125.1" y="36.8" class="st4" width="345.5" height="72.4"/>
<text transform="matrix(0.9466 0 0 1 125.1364 107.1255)" class="st1 st5 st6">hriba</text>
</svg>
